<?xml version="1.0" encoding="utf-8"?>
<!-- Generator: Adobe Illustrator 16.0.0, SVG Export Plug-In . SVG Version: 6.00 Build 0)  -->
<!DOCTYPE svg PUBLIC "-//W3C//DTD SVG 1.1//EN" "http://www.w3.org/Graphics/SVG/1.1/DTD/svg11.dtd">
<svg version="1.1" id="Layer_1" xmlns="http://www.w3.org/2000/svg" xmlns:xlink="http://www.w3.org/1999/xlink" x="0px" y="0px"
	 width="277.583px" height="162.75px" viewBox="0 0 277.583 162.75" enable-background="new 0 0 277.583 162.75"
	 xml:space="preserve">
<g>
	<g>
		<g>
			<path fill="#959A9D" d="M214.642,0.587c-50.083,0.38-100.284-0.566-148.933-0.586c-21.638,0-43.156,0-64.249,0.001H0.102
				l0.001,1.357c0.048,54.411,0.096,107.698,0.143,160l0.001,1.216l1.213-0.001c78.198-0.076,154.242-0.11,227.996,0.111
				c10.268,0.032,27.16,0.1,37.688,0.059c21.87-0.087-0.237-1.602-10.702-1.814c-65.696-1.352-137.503-1.101-195.586-0.66
				c-19.824,0.109-39.63,0.219-59.395,0.328l0.762,0.762c-0.194-53.516-0.133-106.881-0.003-160L1.46,2.118
				c92.489,0.226,184.291,0.661,275,0.329l-1.086-1.087c0.166,45.489,0.524,90.685,1.198,135.566
				c0.108,7.17,0.543,37.504,1.054,17.983c0.521-19.984,0.156-59.532,0.104-68.188c-0.165-27.736-0.176-56.247-0.233-85.361
				l-0.002-1.037l-1.033,0.002C256.141,0.365,235.456,0.43,214.642,0.587z M232.572,0.975c-0.931-0.19,6.013-0.589,7.192-0.349
				C240.696,0.814,233.75,1.215,232.572,0.975z"/>
		</g>
	</g>
</g>
</svg>
